<svg width="64" height="64" viewBox="0 0 64 64" fill="none" xmlns="http://www.w3.org/2000/svg">
<path d="M31.997 43.4841C34.051 43.4841 35.718 42.8202 35.718 41.9957C35.718 41.1726 34.051 40.5073 31.997 40.5073C29.9431 40.5073 28.2761 41.1726 28.2761 41.9957C28.2761 42.8202 29.9431 43.4841 31.997 43.4841ZM6.01302 20.5855C6.13805 20.325 7.51925 17.5745 10.4707 14.5025C7.24093 14.4638 3.61526 12.9888 2.96186 12.3354C1.98102 11.3531 3.60037 8.14564 6.58009 5.16591C9.55981 2.18471 12.7687 0.565356 13.7496 1.54768C14.4729 2.27103 16.2084 6.6394 15.8765 10.0775C19.8474 7.56517 25.1401 5.59159 31.9985 5.59159C38.8257 5.59159 44.1273 7.5741 48.1206 10.0924C47.7812 6.65131 49.5226 2.27103 50.2474 1.54619C51.2283 0.565357 54.4387 2.1847 57.4169 5.16443C60.3952 8.14415 62.016 11.3531 61.0352 12.3339C60.3833 12.9858 56.768 14.4578 53.5442 14.501C56.4956 17.5388 57.9111 20.2476 58.0406 20.5051C58.0733 20.5735 58.1075 20.642 58.1373 20.7105C59.3667 23.4134 60.0796 27.2102 60.413 30.3849C62.5935 32.1739 64 34.9616 64 38.0887C64 42.463 61.2465 46.1795 57.4675 47.4178C52.6184 56.7276 42.8636 62.7406 32.0447 62.7406C21.2346 62.7406 11.4947 56.7454 6.64112 47.4535C2.80558 46.2524 0 42.5092 0 38.0887C0 34.9125 1.44967 32.0861 3.68967 30.3015C4.03051 27.1402 4.74046 23.3866 5.95795 20.709C5.97432 20.6658 5.99367 20.6241 6.01302 20.5855ZM5.95051 38.0887C5.95051 40.1948 7.43591 41.9034 9.28893 41.9034C9.75033 41.9034 10.1894 41.7977 10.5898 41.6057C13.6156 50.4288 22.0681 56.7871 32.0461 56.7871C42.0123 56.7871 50.4573 50.4407 53.4921 41.6325C53.8701 41.8007 54.275 41.9034 54.7051 41.9034C56.5581 41.9034 58.0435 40.1977 58.0435 38.0887C58.0435 35.9797 56.5581 34.2755 54.7051 34.2755C54.7021 34.2755 54.6992 34.2785 54.6962 34.2785C54.6962 34.2041 54.6902 34.1192 54.6887 34.0433C54.1857 34.9006 53.6037 35.7252 52.9563 36.5095C53.5769 34.3827 53.9163 32.1992 53.9163 30.0277C53.9163 29.4621 53.8731 28.9174 53.827 28.3756C48.9972 29.4547 42.2966 28.0035 36.0424 24.0593C32.765 21.9905 30.0517 19.5138 28.0469 16.93C24.4688 18.9244 21.0783 23.071 10.2772 27.3694C10.1611 28.2282 10.0807 29.1064 10.0807 30.0277C10.0807 32.1977 10.4186 34.3856 11.0393 36.5095C10.426 35.7713 9.87833 34.9959 9.39609 34.1936C9.39609 34.2249 9.39312 34.2576 9.39312 34.2859C9.3574 34.2844 9.32465 34.274 9.29042 34.274C7.43591 34.274 5.95051 35.9827 5.95051 38.0887Z" fill="white"/>
<circle cx="44" cy="36" r="4" fill="white"/>
<circle cx="20" cy="36" r="4" fill="white"/>
</svg>
